# xmcd CD database file
# Copyright (C) 1996 Ti Kan
#
# Track frame offsets:
#  150
#  13317
#  25950
#  37140
#  50920
#  59030
#  71540
#  81595
#  95750
#  108235
#  123535
#
# Disc length: 1814 seconds
#
# Revision: 1
# Processed by: cddbd v1.4b41PL1 Copyright (c) Steve Scherf et al.
# Submitted via: CDWizzard Release:4.12
#
DISCID=aa07140b
DTITLE=Ry Cooder - Ry Cooder
DYEAR=1900
DGENRE=
TTITLE0=Alimony
TTITLE1=France Chance
TTITLE2=One Meat Ball
TTITLE3=Do Re Mi
TTITLE4=My Old Kentucky Home (Turpentine and Dandelion Wine)
TTITLE5=How Can A Poor Man Stand Such Times And Live?
TTITLE6=Available Space
TTITLE7=Pigmeat
TTITLE8=Police Dog Blues
TTITLE9=Goin' To Brownsville
TTITLE10=Dark Is The Night
EXTD=1970 Warner Brothers Records
EXTT0=
EXTT1=
EXTT2=
EXTT3=
EXTT4=
EXTT5=
EXTT6=
EXTT7=
EXTT8=
EXTT9=
EXTT10=
PLAYORDER=
